<?xml version="1.0" encoding="UTF-8"?>
<svg class="plc-w-6 plc-h-6" version="1.1" viewBox="0 0 700 700" xmlns="http://www.w3.org/2000/svg">
 <g>
  <path d="m583.01 231.93c-0.12109-1.3242-0.42187-2.6289-0.88672-3.875-0.5625-1.2539-1.1289-2.5078-1.6953-3.7617-0.57812-0.65234-1.2148-1.25-1.8984-1.7891-0.4375-0.4375-0.65234-1.0273-1.1523-1.4141l-56.266-44.164v-52.484c0-4.125-1.6367-8.082-4.5547-11-2.918-2.918-6.875-4.5547-11-4.5547h-70.996l-74.945-58.895c-2.7422-2.1562-6.125-3.3281-9.6133-3.3281s-6.8711 1.1719-9.6133 3.3281l-74.945 58.895h-70.996c-4.125 0-8.082 1.6367-11 4.5547-2.918 2.918-4.5547 6.875-4.5547 11v52.484l-56.266 44.16c-0.49609 0.39062-0.71484 0.99609-1.1523 1.4297v0.003907c-0.6875 0.52734-1.3242 1.1211-1.8984 1.7734-0.21875 0.42578-0.41406 0.85938-0.58984 1.3047-0.44531 0.78125-0.81641 1.6055-1.1055 2.457-0.46484 1.2461-0.76562 2.5508-0.88672 3.875 0 0.48047-0.32813 0.91797-0.32813 1.3984l0.003907 264.45c0 4.125 1.6367 8.082 4.5547 11 2.918 2.918 6.875 4.5547 11 4.5547h435.55c4.125 0 8.082-1.6367 11-4.5547 2.918-2.918 4.5547-6.875 4.5547-11v-264.45c0-0.48047-0.27734-0.91797-0.32422-1.3984zm-41.176 0.80859-20.723 14.809v-31.109zm-191.83-150.73 34.223 26.883h-68.445zm-140 57.992h280v124.45c0.070312 1.5938 0.38281 3.168 0.93359 4.6641l-140.93 100.66-140.46-100.33c0.21484-0.76953 0.37109-1.5547 0.46484-2.3477zm-31.109 107.55-20.719-14.809 20.719-16.27zm-31.113 234.67v-218.66l193.18 137.99c2.6406 1.8828 5.7969 2.8945 9.0391 2.8945s6.3984-1.0117 9.0391-2.8945l193.18-137.99v218.66z"/>
  <path d="m324.33 291.81c2.8789 2.4648 6.5586 3.7969 10.348 3.7422 3.7891-0.054687 7.4297-1.4922 10.234-4.0391l85.555-77.777c4.1133-3.7422 5.918-9.3906 4.7344-14.824-1.1836-5.4297-5.1719-9.8164-10.469-11.512-5.2969-1.6914-11.09-0.42578-15.203 3.3125l-75.398 68.539-44.023-37.723c-3.1016-2.8711-7.2422-4.3516-11.461-4.1055-4.2227 0.24609-8.1602 2.2031-10.91 5.4102-2.75 3.2109-4.0742 7.4023-3.668 11.613 0.40625 4.207 2.5078 8.0664 5.8203 10.695z"/>
 </g>
</svg>
