<svg xmlns="http://www.w3.org/2000/svg" viewBox="0 0 24 30" fill="none" x="0px" y="0px"><path fill-rule="evenodd" clip-rule="evenodd" d="M2.29289 2.29289C2.68342 1.90237 3.31658 1.90237 3.70711 2.29289L8.14564 6.73143C11.795 5.28626 16.1485 5.98263 19.1193 8.82054L21.6907 11.2769C21.8883 11.4656 22 11.7268 22 12C22 12.2732 21.8883 12.5344 21.6907 12.7231L19.1193 15.1795C18.6791 15.6 18.2084 15.9735 17.7142 16.3L21.7071 20.2929C22.0976 20.6834 22.0976 21.3166 21.7071 21.7071C21.3166 22.0976 20.6834 22.0976 20.2929 21.7071L2.29289 3.70711C1.90237 3.31658 1.90237 2.68342 2.29289 2.29289ZM16.263 14.8488C16.7877 14.5393 17.2833 14.1675 17.7378 13.7333L19.5523 12L17.7378 10.2667C17.2091 9.76167 16.625 9.341 16.0039 9.00473C16.6295 9.83958 17 10.8765 17 12C17 13.0191 16.6951 13.967 16.1716 14.7574L16.263 14.8488ZM14.7076 13.2934L10.7066 9.29237C11.0982 9.10495 11.5369 9 12 9C13.6569 9 15 10.3431 15 12C15 12.4631 14.8951 12.9018 14.7076 13.2934Z" fill="black"/><path d="M4.88069 8.82054C4.97066 8.73459 5.06191 8.6506 5.15437 8.56858L6.57176 9.98598C6.46662 10.0765 6.36338 10.1701 6.26217 10.2667L4.44772 12L6.26217 13.7333C7.98811 15.382 10.3044 16.1313 12.567 15.9812L14.3263 17.7406C11.0426 18.4838 7.44614 17.6301 4.88069 15.1795L2.30926 12.7231C2.11174 12.5344 2 12.2732 2 12C2 11.7268 2.11174 11.4656 2.30926 11.2769L4.88069 8.82054Z" fill="black"/></svg>