<svg xmlns="http://www.w3.org/2000/svg" viewBox="0 0 32 40" fill="none" x="0px" y="0px"><path fill-rule="evenodd" clip-rule="evenodd" d="M26.8143 12.4316C20.8405 6.5228 11.1595 6.5228 5.18566 12.4316L2.29677 15.289C2.10687 15.4769 2 15.7329 2 16C2 16.2671 2.10687 16.5231 2.29677 16.711L5.18566 19.5684C11.1595 25.4772 20.8405 25.4772 26.8143 19.5684L29.7032 16.711C29.8931 16.5231 30 16.2671 30 16C30 15.7329 29.8931 15.4769 29.7032 15.289L26.8143 12.4316ZM20.7595 10.867C22.454 11.5076 24.0426 12.5031 25.4079 13.8535L27.578 16L25.4079 18.1465C24.0426 19.4969 22.454 20.4924 20.7595 21.133C22.1376 19.8546 23 18.028 23 16C23 13.972 22.1376 12.1454 20.7595 10.867ZM11.2405 10.867C9.54601 11.5076 7.95743 12.5031 6.59211 13.8535L4.42202 16L6.59211 18.1465C7.95743 19.4969 9.54601 20.4924 11.2405 21.133C9.86241 19.8546 9 18.028 9 16C9 13.972 9.86241 12.1454 11.2405 10.867ZM11 16C11 13.2386 13.2386 11 16 11C18.7614 11 21 13.2386 21 16C21 18.7614 18.7614 21 16 21C13.2386 21 11 18.7614 11 16Z" fill="black"/></svg>