 <svg
      xmlns="http://www.w3.org/2000/svg"
      viewBox="0 -80.652 497.072 179.991"
    >
      <g>
        <path
          fill="none"
          stroke="#4A4A4A"
          strokeMiterlimit="10"
          d="M487.89,42.299c0,13.158-10.671,23.829-23.829,23.829H37.074
		c-13.162,0-23.832-10.671-23.832-23.829v-63.552c0-13.158,10.67-23.831,23.832-23.831h426.986
		c13.158,0,23.829,10.672,23.829,23.831V42.299L487.89,42.299z"
        />
        <g>
          <g>
            <path
              fill="#4A4A4A"
              d="M46.875-5.564h7.294c0.88,0,1.805,0.102,2.77,0.307c0.963,0.201,1.844,0.55,2.643,1.05
				c0.8,0.502,1.455,1.186,1.967,2.057c0.513,0.873,0.768,1.96,0.768,3.274c0,1.144-0.207,2.132-0.626,2.964
				c-0.416,0.835-0.979,1.519-1.68,2.055c-0.701,0.535-1.515,0.935-2.428,1.196c-0.921,0.263-1.877,0.394-2.88,0.394h-5.468v12.009
				h-2.36L46.875-5.564L46.875-5.564z M49.234,5.589h5.363c0.668,0,1.324-0.077,1.966-0.232c0.644-0.155,1.216-0.405,1.715-0.751
				c0.501-0.346,0.905-0.805,1.219-1.377c0.308-0.572,0.464-1.273,0.464-2.107c0-0.811-0.163-1.501-0.485-2.074
				c-0.321-0.57-0.737-1.044-1.25-1.411c-0.512-0.37-1.101-0.638-1.769-0.805c-0.667-0.168-1.333-0.252-2.001-0.252h-5.218v9.01
				H49.234z"
            />
            <path
              fill="#4A4A4A"
              d="M65.859,11.486c0-1.262,0.212-2.423,0.642-3.484c0.431-1.062,1.026-1.979,1.787-2.755
				c0.765-0.771,1.681-1.378,2.754-1.803c1.073-0.43,2.241-0.642,3.502-0.642c1.263,0,2.425,0.212,3.485,0.642
				c1.061,0.429,1.976,1.032,2.751,1.803c0.776,0.776,1.378,1.692,1.805,2.755c0.431,1.061,0.645,2.222,0.645,3.484
				c0,1.265-0.217,2.428-0.645,3.484c-0.427,1.06-1.028,1.979-1.805,2.756c-0.775,0.775-1.69,1.376-2.751,1.805
				c-1.061,0.428-2.223,0.641-3.485,0.641c-1.264,0-2.432-0.213-3.502-0.641c-1.073-0.436-1.989-1.034-2.754-1.805
				c-0.762-0.777-1.357-1.696-1.787-2.756C66.074,13.914,65.859,12.753,65.859,11.486z M68.003,11.486
				c0,0.932,0.148,1.809,0.447,2.631c0.298,0.822,0.735,1.537,1.306,2.146c0.572,0.605,1.263,1.089,2.073,1.446
				c0.812,0.356,1.716,0.536,2.717,0.536c1.001,0,1.905-0.179,2.717-0.536c0.809-0.357,1.501-0.84,2.071-1.446
				c0.572-0.609,1.007-1.324,1.305-2.146c0.297-0.822,0.446-1.699,0.446-2.631c0-0.926-0.149-1.803-0.446-2.625
				c-0.298-0.824-0.734-1.537-1.305-2.147c-0.572-0.609-1.265-1.089-2.071-1.446c-0.812-0.36-1.717-0.538-2.717-0.538
				c-0.999,0-1.906,0.178-2.717,0.538c-0.81,0.357-1.501,0.837-2.073,1.446c-0.571,0.607-1.008,1.323-1.306,2.147
				C68.151,9.683,68.003,10.56,68.003,11.486z"
            />
            <path
              fill="#4A4A4A"
              d="M85.697,3.229h2.362l4.003,13.833h0.071l4.612-13.833h2.039l4.896,13.833h0.072l3.897-13.833h2.145
				l-4.859,16.514h-2.218L97.781,6.229h-0.07L93.1,19.743h-2.214L85.697,3.229z"
            />
            <path
              fill="#4A4A4A"
              d="M127.773,16.637c-0.834,1.261-1.865,2.165-3.093,2.715c-1.23,0.548-2.582,0.825-4.058,0.825
				c-1.264,0-2.408-0.217-3.431-0.644c-1.026-0.431-1.906-1.032-2.647-1.807c-0.739-0.777-1.305-1.695-1.7-2.751
				c-0.395-1.059-0.59-2.234-0.59-3.521c0-1.237,0.204-2.384,0.609-3.432c0.404-1.05,0.978-1.962,1.715-2.734
				c0.737-0.775,1.61-1.383,2.61-1.825c0.999-0.437,2.108-0.66,3.323-0.66c1.266,0,2.377,0.223,3.342,0.66
				c0.965,0.444,1.775,1.026,2.431,1.754c0.656,0.727,1.15,1.555,1.483,2.483c0.336,0.929,0.502,1.871,0.502,2.824v1.5h-13.871
				c0,0.453,0.093,1.033,0.271,1.732c0.177,0.704,0.504,1.389,0.981,2.058c0.475,0.667,1.113,1.236,1.912,1.718
				c0.798,0.475,1.829,0.712,3.094,0.712c1.095,0,2.158-0.259,3.181-0.787c1.024-0.527,1.808-1.238,2.358-2.146L127.773,16.637z
				 M126.128,10.094c0-0.739-0.149-1.432-0.448-2.072c-0.293-0.643-0.702-1.209-1.214-1.697c-0.512-0.49-1.119-0.875-1.822-1.166
				c-0.704-0.286-1.447-0.429-2.233-0.429c-1.168,0-2.138,0.239-2.914,0.717c-0.774,0.475-1.389,1.021-1.84,1.644
				c-0.454,0.621-0.775,1.222-0.967,1.802c-0.191,0.584-0.285,0.986-0.285,1.197h11.723V10.094z"
            />
            <path
              fill="#4A4A4A"
              d="M133.061,7.876c0-0.309-0.013-0.684-0.035-1.126c-0.025-0.44-0.042-0.886-0.052-1.336
				c-0.014-0.456-0.029-0.877-0.055-1.272c-0.023-0.395-0.035-0.696-0.035-0.914h2.146c0.023,0.619,0.04,1.218,0.053,1.787
				c0.01,0.574,0.043,0.943,0.089,1.111c0.548-0.979,1.249-1.777,2.108-2.396c0.856-0.62,1.907-0.928,3.148-0.928
				c0.212,0,0.423,0.016,0.624,0.055c0.202,0.034,0.411,0.077,0.626,0.121l-0.249,2.111c-0.286-0.098-0.56-0.146-0.821-0.146
				c-0.93,0-1.734,0.146-2.414,0.448c-0.678,0.298-1.238,0.708-1.68,1.232c-0.441,0.523-0.768,1.137-0.983,1.842
				c-0.213,0.705-0.321,1.46-0.321,2.271v9.006h-2.146V7.876H133.061z"
            />
            <path
              fill="#4A4A4A"
              d="M158.906,16.637c-0.836,1.261-1.866,2.165-3.092,2.715c-1.229,0.548-2.58,0.825-4.059,0.825
				c-1.265,0-2.407-0.217-3.431-0.644c-1.028-0.431-1.911-1.032-2.646-1.807c-0.738-0.772-1.305-1.695-1.698-2.751
				c-0.394-1.059-0.59-2.234-0.59-3.521c0-1.237,0.2-2.384,0.608-3.432c0.405-1.05,0.978-1.962,1.717-2.734
				c0.738-0.775,1.609-1.383,2.609-1.825c0.999-0.437,2.107-0.66,3.322-0.66c1.264,0,2.376,0.223,3.344,0.66
				c0.963,0.444,1.773,1.026,2.429,1.754c0.654,0.727,1.149,1.555,1.485,2.483c0.332,0.929,0.498,1.871,0.498,2.824v1.5h-13.869
				c0,0.453,0.089,1.033,0.268,1.732c0.178,0.704,0.506,1.389,0.983,2.058c0.476,0.667,1.111,1.236,1.91,1.718
				c0.8,0.475,1.829,0.712,3.092,0.712c1.096,0,2.158-0.259,3.183-0.787c1.022-0.527,1.81-1.238,2.361-2.146L158.906,16.637z
				 M157.263,10.094c0-0.739-0.147-1.432-0.447-2.072c-0.299-0.643-0.701-1.209-1.215-1.697c-0.513-0.49-1.122-0.875-1.821-1.166
				c-0.705-0.286-1.447-0.429-2.233-0.429c-1.171,0-2.139,0.239-2.914,0.717c-0.775,0.475-1.387,1.021-1.84,1.644
				c-0.454,0.621-0.776,1.222-0.968,1.802c-0.192,0.584-0.288,0.986-0.288,1.197h11.727V10.094z"
            />
            <path
              fill="#4A4A4A"
              d="M178.643,16.85h-0.073c-0.332,0.571-0.749,1.07-1.249,1.48c-0.502,0.421-1.042,0.765-1.627,1.04
				c-0.587,0.271-1.194,0.475-1.84,0.604c-0.643,0.135-1.275,0.199-1.894,0.199c-1.264,0-2.432-0.213-3.506-0.641
				c-1.071-0.436-1.988-1.034-2.751-1.805c-0.76-0.777-1.358-1.696-1.786-2.756c-0.431-1.057-0.642-2.219-0.642-3.484
				c0-1.262,0.212-2.423,0.642-3.484c0.428-1.062,1.026-1.979,1.786-2.755c0.763-0.771,1.68-1.378,2.751-1.803
				c1.074-0.43,2.242-0.642,3.506-0.642c0.618,0,1.251,0.065,1.894,0.196c0.643,0.131,1.253,0.335,1.84,0.606
				c0.585,0.277,1.127,0.622,1.627,1.038c0.5,0.419,0.917,0.913,1.249,1.484h0.073V-7.278h2.143v27.023h-2.143V16.85z
				 M178.854,11.486c0-0.926-0.177-1.803-0.536-2.625c-0.357-0.824-0.845-1.537-1.467-2.147c-0.617-0.609-1.344-1.089-2.181-1.446
				c-0.834-0.36-1.738-0.538-2.714-0.538c-1.002,0-1.908,0.178-2.717,0.538c-0.811,0.357-1.504,0.837-2.076,1.446
				c-0.57,0.607-1.007,1.323-1.305,2.147c-0.298,0.822-0.446,1.699-0.446,2.625c0,0.932,0.148,1.809,0.446,2.631
				s0.734,1.537,1.305,2.146c0.572,0.605,1.266,1.089,2.076,1.446c0.809,0.356,1.715,0.536,2.717,0.536
				c0.976,0,1.88-0.179,2.714-0.536c0.837-0.357,1.563-0.84,2.181-1.446c0.622-0.609,1.109-1.324,1.467-2.146
				C178.677,13.295,178.854,12.418,178.854,11.486z"
            />
            <path
              fill="#4A4A4A"
              d="M194.869-7.278h2.146V6.126h0.068c0.335-0.571,0.754-1.065,1.255-1.484
				c0.498-0.417,1.043-0.761,1.626-1.038c0.584-0.271,1.196-0.476,1.84-0.606c0.644-0.13,1.275-0.196,1.895-0.196
				c1.263,0,2.422,0.212,3.486,0.642c1.059,0.429,1.976,1.032,2.75,1.803c0.775,0.776,1.377,1.692,1.806,2.755
				c0.43,1.061,0.645,2.222,0.645,3.484c0,1.265-0.217,2.428-0.645,3.484c-0.429,1.06-1.033,1.979-1.806,2.756
				c-0.773,0.775-1.691,1.376-2.75,1.805c-1.062,0.428-2.224,0.641-3.486,0.641c-0.622,0-1.251-0.064-1.895-0.199
				c-0.644-0.13-1.256-0.332-1.84-0.604c-0.583-0.274-1.128-0.618-1.626-1.04c-0.501-0.415-0.92-0.909-1.255-1.48h-0.068v2.893
				h-2.146V-7.278z M196.801,11.486c0,0.932,0.177,1.809,0.538,2.631c0.356,0.822,0.843,1.537,1.464,2.146
				c0.619,0.605,1.343,1.089,2.182,1.446c0.836,0.356,1.739,0.536,2.715,0.536c1.003,0,1.907-0.179,2.718-0.536
				c0.812-0.357,1.501-0.84,2.071-1.446c0.573-0.609,1.01-1.324,1.306-2.146c0.299-0.822,0.447-1.699,0.447-2.631
				c0-0.926-0.148-1.803-0.447-2.625c-0.296-0.824-0.733-1.537-1.306-2.147c-0.57-0.609-1.263-1.089-2.071-1.446
				c-0.811-0.36-1.715-0.538-2.718-0.538c-0.978,0-1.879,0.178-2.715,0.538c-0.839,0.357-1.562,0.837-2.182,1.446
				c-0.618,0.607-1.107,1.323-1.464,2.147C196.978,9.683,196.801,10.56,196.801,11.486z"
            />
            <path
              fill="#4A4A4A"
              d="M221.824,24.856c-0.405,1.073-0.966,1.921-1.681,2.541c-0.714,0.619-1.668,0.93-2.858,0.93
				c-0.355,0-0.715-0.035-1.072-0.093c-0.358-0.054-0.704-0.137-1.035-0.233l0.21-2c0.312,0.097,0.628,0.179,0.951,0.264
				c0.321,0.089,0.646,0.127,0.982,0.127c0.379,0,0.72-0.082,1.017-0.251c0.298-0.161,0.554-0.378,0.771-0.64
				c0.212-0.262,0.396-0.55,0.554-0.881c0.155-0.321,0.292-0.646,0.409-0.974l1.504-3.827l-6.722-16.59h2.394l5.473,13.907
				l5.325-13.907h2.289L221.824,24.856z"
            />
          </g>
          <g>
            <path
              fill="#4C4C4C"
              d="M286.638-13.196c-0.062-0.009-0.129-0.016-0.193-0.016h-23.102c-0.679,0-1.227,0.574-1.227,1.281V8.757
				c-0.046,0.582-0.065,1.174-0.065,1.768c0,0.596,0.02,1.184,0.065,1.768v0.033c0,0.089,0.007,0.171,0.019,0.251
				c1.043,12.146,11.231,21.684,23.65,21.684c13.106,0,23.734-10.627,23.734-23.736C309.52-2.3,299.35-12.745,286.638-13.196z
				 M292.678,27.761h-2.92V-2.211H287.1v29.984h-2.705V8.958c-1.064-0.079-3.329-0.868-3.329-0.868l0,0
				c-2.471-0.462-4.353-2.985-4.353-6.025c0-2.973,1.804-5.451,4.183-5.99c0,0,0,0,0-0.003c0.145-0.289,2.472-0.419,3.499-0.463
				v-0.021h2.332h0.373h5.575v32.174H292.678z"
            />
            <g>
              <path
                fill="#4C4C4C"
                d="M319.574,30.944V-7.805h13.507c4.715,0,8.079,0.79,10.096,2.37c2.019,1.576,3.022,4.219,3.022,7.919
					c0,4.189-1.347,7.449-4.041,9.779c-2.701,2.329-6.473,3.496-11.327,3.496h-3.35v15.186H319.574L319.574,30.944z M327.475,10.444
					h1.575c2.756,0,4.933-0.643,6.534-1.926c1.595-1.281,2.394-3.021,2.394-5.22c0-3.86-2.452-5.787-7.357-5.787h-3.139v12.933
					H327.475z"
              />
              <path
                fill="#4C4C4C"
                d="M370.8,29.971c-3.684,1.087-7.172,1.628-10.47,1.628c-4.801,0-8.59-1.362-11.361-4.087
					c-2.778-2.725-4.167-6.446-4.167-11.157c0-4.449,1.274-8.031,3.81-10.747c2.538-2.712,5.896-4.071,10.069-4.071
					c4.202,0,7.276,1.328,9.212,3.982c1.938,2.654,2.903,6.849,2.903,12.595h-17.83c0.528,5.48,3.541,8.22,9.033,8.22
					c2.6,0,5.539-0.6,8.797-1.81v5.446H370.8z M352.869,13.74h10.315c0-4.903-1.579-7.357-4.739-7.357
					C355.234,6.383,353.377,8.836,352.869,13.74z"
              />
              <path
                fill="#4C4C4C"
                d="M374.259,30.944v-41.343h7.748v41.343H374.259z"
              />
              <path
                fill="#4C4C4C"
                d="M408.5,30.314c-3.209,0.855-6.185,1.284-8.923,1.284c-4.593,0-8.22-1.351-10.881-4.044
					c-2.664-2.701-3.995-6.368-3.995-11.011c0-4.696,1.373-8.369,4.115-11.021c2.734-2.655,6.526-3.982,11.364-3.982
					c2.33,0,5.036,0.375,8.086,1.127v5.601c-3.171-1.028-5.714-1.544-7.617-1.544c-2.322,0-4.188,0.89-5.603,2.671
					c-1.418,1.781-2.118,4.143-2.118,7.093c0,3.021,0.764,5.443,2.286,7.259c1.531,1.811,3.567,2.723,6.118,2.723
					c2.318,0,4.709-0.51,7.173-1.521v5.367H408.5z"
              />
              <path
                fill="#4C4C4C"
                d="M410.608,30.944V2.194h7.751v5.419c2.004-4.049,5.059-6.073,9.16-6.073c0.49,0,0.97,0.051,1.44,0.158
					V8.61c-1.1-0.401-2.12-0.599-3.062-0.599c-3.09,0-5.604,1.56-7.538,4.684v18.25H410.608L410.608,30.944z"
              />
              <path
                fill="#4C4C4C"
                d="M442.866,31.599c-4.486,0-8.056-1.356-10.696-4.072c-2.643-2.711-3.967-6.368-3.967-10.959
					c0-4.644,1.329-8.308,3.99-10.994c2.663-2.69,6.278-4.034,10.857-4.034c4.586,0,8.214,1.344,10.873,4.034
					c2.664,2.686,3.997,6.336,3.997,10.943c0,4.711-1.336,8.404-4.01,11.072C451.242,30.262,447.557,31.599,442.866,31.599z
					 M442.99,26.754c4.459,0,6.678-3.411,6.678-10.237c0-3.125-0.59-5.596-1.765-7.41c-1.18-1.818-2.802-2.724-4.858-2.724
					c-2.044,0-3.652,0.909-4.83,2.724c-1.178,1.814-1.766,4.304-1.766,7.461c0,3.124,0.582,5.607,1.754,7.435
					C439.373,25.84,440.971,26.754,442.99,26.754z"
              />
            </g>
          </g>
        </g>
      </g>
    </svg>