<svg xmlns="http://www.w3.org/2000/svg" viewBox="0 -80.652 497.072 179.991"><path fill="none" stroke="#4a4a4a" d="M487.89 42.299c0 13.158-10.671 23.829-23.829 23.829H37.074c-13.162 0-23.832-10.671-23.832-23.829v-63.552c0-13.158 10.67-23.831 23.832-23.831H464.06c13.158 0 23.829 10.672 23.829 23.831l.001 63.552z"/><path d="M46.875-5.564h7.294c.88 0 1.805.102 2.77.307s1.844.55 2.643 1.05 1.455 1.186 1.967 2.057.768 1.96.768 3.274c0 1.144-.207 2.132-.626 2.964s-.979 1.519-1.68 2.055-1.515.935-2.428 1.196c-.921.263-1.877.394-2.88.394h-5.468v12.009h-2.36V-5.564zm2.359 11.153h5.363a8.35 8.35 0 0 0 1.966-.232c.644-.155 1.216-.405 1.715-.751s.905-.805 1.219-1.377c.308-.572.464-1.273.464-2.107 0-.811-.163-1.501-.485-2.074s-.737-1.044-1.25-1.411-1.101-.638-1.769-.805a8.16 8.16 0 0 0-2.001-.252h-5.218l-.004 9.01zm16.625 5.897c0-1.262.212-2.423.642-3.484a8.39 8.39 0 0 1 1.787-2.755c.765-.771 1.681-1.378 2.754-1.803 1.073-.43 2.241-.642 3.502-.642s2.425.212 3.485.642a8.25 8.25 0 0 1 2.751 1.803c.775.771 1.378 1.692 1.805 2.755s.645 2.222.645 3.484-.217 2.428-.645 3.484-1.028 1.979-1.805 2.756a8.17 8.17 0 0 1-2.751 1.805c-1.061.428-2.223.641-3.485.641s-2.432-.213-3.502-.641c-1.073-.436-1.989-1.034-2.754-1.805-.762-.777-1.357-1.696-1.787-2.756s-.642-2.217-.642-3.484zm2.144 0c0 .932.148 1.809.447 2.631a6.18 6.18 0 0 0 1.306 2.146c.572.605 1.263 1.089 2.073 1.446s1.716.536 2.717.536 1.905-.179 2.717-.536 1.501-.84 2.071-1.446 1.007-1.324 1.305-2.146a7.66 7.66 0 0 0 .446-2.631c0-.926-.149-1.803-.446-2.625s-.734-1.537-1.305-2.147-1.265-1.089-2.071-1.446c-.812-.36-1.717-.538-2.717-.538s-1.906.178-2.717.538-1.501.837-2.073 1.446a6.15 6.15 0 0 0-1.306 2.147 7.66 7.66 0 0 0-.447 2.625zm17.694-8.257h2.362l4.003 13.833h.071l4.612-13.833h2.039l4.896 13.833h.072l3.897-13.833h2.145l-4.859 16.514h-2.218L97.781 6.229h-.07L93.1 19.743h-2.214L85.697 3.229zm42.076 13.408c-.834 1.261-1.865 2.165-3.093 2.715s-2.582.825-4.058.825c-1.264 0-2.408-.217-3.431-.644a7.78 7.78 0 0 1-2.647-1.807c-.739-.777-1.305-1.695-1.7-2.751s-.59-2.234-.59-3.521c0-1.237.204-2.384.609-3.432s.978-1.962 1.715-2.734a8.06 8.06 0 0 1 2.61-1.825c.999-.437 2.108-.66 3.323-.66 1.266 0 2.377.223 3.342.66.965.444 1.775 1.026 2.431 1.754a7.4 7.4 0 0 1 1.483 2.483c.336.929.502 1.871.502 2.824v1.5h-13.871c0 .453.093 1.033.271 1.732.177.704.504 1.389.981 2.058s1.113 1.236 1.912 1.718c.798.475 1.829.712 3.094.712 1.095 0 2.158-.259 3.181-.787s1.808-1.238 2.358-2.146l1.578 1.326zm-1.645-6.543a4.84 4.84 0 0 0-.448-2.072 5.46 5.46 0 0 0-1.214-1.697c-.512-.49-1.119-.875-1.822-1.166a5.87 5.87 0 0 0-2.233-.429c-1.168 0-2.138.239-2.914.717s-1.389 1.021-1.84 1.644-.775 1.222-.967 1.802-.285.986-.285 1.197l11.723.004zm6.933-2.218l-.035-1.126-.052-1.336-.055-1.272-.035-.914h2.146l.053 1.787c.01.574.043.943.089 1.111.548-.979 1.249-1.777 2.108-2.396s1.907-.928 3.148-.928c.212 0 .423.016.624.055l.626.121-.249 2.111a2.53 2.53 0 0 0-.821-.146c-.93 0-1.734.146-2.414.448s-1.238.708-1.68 1.232-.768 1.137-.983 1.842-.321 1.46-.321 2.271v9.006h-2.146l-.003-11.866zm25.845 8.761c-.836 1.261-1.866 2.165-3.092 2.715s-2.58.825-4.059.825c-1.265 0-2.407-.217-3.431-.644a7.7 7.7 0 0 1-2.646-1.807 7.95 7.95 0 0 1-1.698-2.751c-.394-1.059-.59-2.234-.59-3.521 0-1.237.2-2.384.608-3.432s.978-1.962 1.717-2.734 1.609-1.383 2.609-1.825c.999-.437 2.107-.66 3.322-.66 1.264 0 2.376.223 3.344.66.963.444 1.773 1.026 2.429 1.754a7.49 7.49 0 0 1 1.485 2.483 8.34 8.34 0 0 1 .498 2.824v1.5h-13.869c0 .453.089 1.033.268 1.732.178.704.506 1.389.983 2.058s1.111 1.236 1.91 1.718c.8.475 1.829.712 3.092.712 1.096 0 2.158-.259 3.183-.787s1.81-1.238 2.361-2.146l1.576 1.326zm-1.643-6.543c0-.739-.147-1.432-.447-2.072a5.58 5.58 0 0 0-1.215-1.697c-.514-.488-1.122-.875-1.821-1.166-.705-.286-1.447-.429-2.233-.429-1.171 0-2.139.239-2.914.717s-1.387 1.021-1.84 1.644-.776 1.222-.968 1.802-.288.986-.288 1.197l11.727.004zm21.38 6.756h-.073c-.332.571-.749 1.07-1.249 1.48a7.44 7.44 0 0 1-1.627 1.04c-.587.271-1.194.475-1.84.604a9.2 9.2 0 0 1-1.894.199c-1.264 0-2.432-.213-3.506-.641-1.071-.436-1.988-1.034-2.751-1.805-.76-.777-1.358-1.696-1.786-2.756s-.642-2.219-.642-3.484.212-2.423.642-3.484 1.026-1.979 1.786-2.755 1.68-1.378 2.751-1.803c1.074-.43 2.242-.642 3.506-.642.618 0 1.251.065 1.894.196a8.34 8.34 0 0 1 1.84.606 7.65 7.65 0 0 1 1.627 1.038 5.58 5.58 0 0 1 1.249 1.484h.073V-7.278h2.143v27.023h-2.143V16.85zm.211-5.364c0-.926-.177-1.803-.536-2.625a6.7 6.7 0 0 0-1.467-2.147c-.617-.609-1.344-1.089-2.181-1.446s-1.738-.538-2.714-.538c-1.002 0-1.908.178-2.717.538s-1.504.837-2.076 1.446a6.16 6.16 0 0 0-1.305 2.147 7.65 7.65 0 0 0-.446 2.625 7.66 7.66 0 0 0 .446 2.631c.298.822.734 1.537 1.305 2.146s1.266 1.089 2.076 1.446 1.715.536 2.717.536c.976 0 1.88-.179 2.714-.536s1.563-.84 2.181-1.446 1.109-1.324 1.467-2.146a6.5 6.5 0 0 0 .536-2.631zm16.015-18.764h2.146V6.126h.068a5.64 5.64 0 0 1 1.255-1.484c.498-.417 1.043-.761 1.626-1.038a8.22 8.22 0 0 1 1.84-.606 9.56 9.56 0 0 1 1.895-.196c1.263 0 2.422.212 3.486.642s1.976 1.032 2.75 1.803a8.18 8.18 0 0 1 1.806 2.755c.43 1.061.645 2.222.645 3.484s-.217 2.428-.645 3.484a8.28 8.28 0 0 1-1.806 2.756c-.773.777-1.691 1.376-2.75 1.805s-2.224.641-3.486.641c-.622 0-1.251-.064-1.895-.199-.644-.13-1.256-.332-1.84-.604s-1.128-.618-1.626-1.04a5.56 5.56 0 0 1-1.255-1.48h-.068v2.893h-2.146v-27.02zm1.932 18.764c0 .932.177 1.809.538 2.631a6.7 6.7 0 0 0 1.464 2.146c.619.605 1.343 1.089 2.182 1.446a6.85 6.85 0 0 0 2.715.536c1.003 0 1.907-.179 2.718-.536s1.501-.84 2.071-1.446a6.12 6.12 0 0 0 1.306-2.146c.299-.822.447-1.699.447-2.631 0-.926-.148-1.803-.447-2.625s-.733-1.537-1.306-2.147-1.263-1.089-2.071-1.446-1.715-.538-2.718-.538c-.978 0-1.879.178-2.715.538a6.96 6.96 0 0 0-2.182 1.446c-.618.607-1.107 1.323-1.464 2.147a6.46 6.46 0 0 0-.538 2.625zm25.023 13.37c-.405 1.073-.966 1.921-1.681 2.541s-1.668.93-2.858.93a6.71 6.71 0 0 1-1.072-.093c-.358-.054-.704-.137-1.035-.233l.21-2 .951.264a3.64 3.64 0 0 0 .982.127c.379 0 .72-.082 1.017-.251a2.61 2.61 0 0 0 .771-.64c.212-.262.396-.55.554-.881a9.86 9.86 0 0 0 .409-.974l1.504-3.827-6.722-16.59h2.394l5.473 13.907 5.325-13.907h2.289l-8.511 21.627z" fill="#4a4a4a"/><path d="M286.638-13.196a1.37 1.37 0 0 0-.193-.016h-23.102c-.679 0-1.227.574-1.227 1.281V8.757l-.065 1.768.065 1.768v.033a1.67 1.67 0 0 0 .019.251c1.043 12.146 11.231 21.684 23.65 21.684 13.106 0 23.734-10.627 23.734-23.736a23.74 23.74 0 0 0-22.881-23.721zm6.04 40.957h-2.92V-2.211H287.1v29.984h-2.705V8.958c-1.064-.079-3.329-.868-3.329-.868h0c-2.471-.462-4.353-2.985-4.353-6.025 0-2.973 1.804-5.451 4.183-5.99.145-.292 2.472-.422 3.499-.466v-.021h8.28l.003 32.174zm26.896 3.183V-7.805h13.507c4.715 0 8.079.79 10.096 2.37s3.022 4.219 3.022 7.919c0 4.189-1.347 7.449-4.041 9.779-2.701 2.329-6.473 3.496-11.327 3.496h-3.35v15.186h-7.907v-.001zm7.901-20.5h1.575c2.756 0 4.933-.643 6.534-1.926 1.595-1.281 2.394-3.021 2.394-5.22 0-3.86-2.452-5.787-7.357-5.787h-3.139l-.007 12.933zM370.8 29.971c-3.684 1.087-7.172 1.628-10.47 1.628-4.801 0-8.59-1.362-11.361-4.087-2.778-2.725-4.167-6.446-4.167-11.157 0-4.449 1.274-8.031 3.81-10.747s5.896-4.071 10.069-4.071c4.202 0 7.276 1.328 9.212 3.982s2.903 6.849 2.903 12.595h-17.83c.528 5.48 3.541 8.22 9.033 8.22 2.6 0 5.539-.6 8.797-1.81v5.446h.004zM352.869 13.74h10.315c0-4.903-1.579-7.357-4.739-7.357-3.211 0-5.068 2.453-5.576 7.357zm21.39 17.204v-41.343h7.748v41.343h-7.748zm34.241-.63c-3.209.855-6.185 1.284-8.923 1.284-4.593 0-8.22-1.351-10.881-4.044-2.664-2.701-3.995-6.368-3.995-11.011 0-4.696 1.373-8.369 4.115-11.021 2.734-2.655 6.526-3.982 11.364-3.982 2.33 0 5.036.375 8.086 1.127v5.601c-3.171-1.028-5.714-1.544-7.617-1.544-2.322 0-4.188.89-5.603 2.671s-2.118 4.143-2.118 7.093c0 3.021.764 5.443 2.286 7.259 1.531 1.811 3.567 2.723 6.118 2.723 2.318 0 4.709-.51 7.173-1.521v5.367h-.005zm2.108.63V2.194h7.751v5.419c2.004-4.049 5.059-6.073 9.16-6.073.49 0 .97.051 1.44.158V8.61c-1.1-.401-2.12-.599-3.062-.599-3.09 0-5.604 1.56-7.538 4.684v18.25h-7.751v-.001zm32.258.655c-4.486 0-8.056-1.356-10.696-4.072s-3.967-6.368-3.967-10.959c0-4.644 1.329-8.308 3.99-10.994s6.278-4.034 10.857-4.034c4.586 0 8.214 1.344 10.873 4.034s3.997 6.336 3.997 10.943c0 4.711-1.336 8.404-4.01 11.072-2.668 2.673-6.353 4.01-11.044 4.01zm.124-4.845c4.459 0 6.678-3.411 6.678-10.237 0-3.125-.59-5.596-1.765-7.41s-2.802-2.724-4.858-2.724c-2.044 0-3.652.909-4.83 2.724s-1.766 4.304-1.766 7.461c0 3.124.582 5.607 1.754 7.435 1.17 1.837 2.768 2.751 4.787 2.751z" fill="#4c4c4c"/><defs /></svg>