<?xml version="1.0" standalone="no"?>
<!DOCTYPE svg PUBLIC "-//W3C//DTD SVG 20010904//EN"
 "http://www.w3.org/TR/2001/REC-SVG-20010904/DTD/svg10.dtd">
<svg version="1.0" xmlns="http://www.w3.org/2000/svg"
 width="512.000000pt" height="512.000000pt" viewBox="0 0 512.000000 512.000000"
 preserveAspectRatio="xMidYMid meet">

<g transform="translate(0.000000,512.000000) scale(0.100000,-0.100000)"
fill="#000000" stroke="none">
<path d="M935 4496 c-157 -39 -280 -166 -314 -324 -7 -33 -11 -172 -11 -364 0
-291 1 -314 20 -353 53 -110 212 -111 264 -1 14 29 16 79 16 346 0 344 1 353
63 390 30 19 52 20 345 20 269 0 319 2 348 16 110 52 109 211 -1 264 -39 19
-61 20 -361 19 -218 0 -335 -5 -369 -13z"/>
<path d="M3454 4490 c-109 -54 -109 -212 0 -264 29 -14 79 -16 348 -16 293 0
315 -1 345 -20 62 -37 63 -46 63 -390 0 -267 2 -317 16 -346 52 -110 211 -109
264 1 19 39 20 62 20 353 0 192 -4 331 -11 364 -35 162 -165 292 -327 327 -33
7 -172 11 -365 11 -293 0 -315 -1 -353 -20z"/>
<path d="M1460 3831 c-69 -21 -121 -65 -156 -131 -18 -32 -19 -63 -19 -385 0
-342 0 -351 22 -391 28 -53 91 -107 142 -122 25 -8 144 -12 358 -12 363 0 383
3 452 72 68 69 71 89 71 451 0 222 -4 332 -12 361 -18 60 -100 139 -160 154
-53 13 -655 16 -698 3z m570 -516 l0 -225 -225 0 -225 0 0 225 0 225 225 0
225 0 0 -225z"/>
<path d="M2970 3831 c-80 -25 -149 -92 -169 -164 -9 -29 -11 -143 -9 -377 3
-372 2 -362 74 -433 66 -64 88 -67 450 -67 356 0 380 3 442 63 19 18 43 50 55
72 21 39 22 50 22 390 0 340 -1 351 -22 390 -25 47 -64 85 -113 111 -32 17
-64 19 -370 21 -184 1 -346 -2 -360 -6z m570 -516 l0 -225 -225 0 -225 0 0
225 0 225 225 0 225 0 0 -225z"/>
<path d="M1441 2317 c-48 -18 -108 -72 -134 -120 -22 -41 -22 -49 -22 -392 0
-340 1 -351 22 -390 25 -47 64 -85 113 -111 32 -17 66 -19 355 -22 389 -4 407
-2 480 72 32 32 55 66 63 92 8 29 12 139 12 361 0 358 -4 383 -66 447 -70 72
-60 71 -444 73 -254 1 -354 -1 -379 -10z m589 -512 l0 -225 -225 0 -225 0 0
225 0 225 225 0 225 0 0 -225z"/>
<path d="M2948 2316 c-68 -24 -129 -89 -148 -157 -15 -50 -13 -662 2 -710 15
-51 69 -114 122 -142 40 -22 49 -22 391 -22 322 0 353 1 385 19 49 26 88 64
113 111 21 39 22 50 22 390 0 340 -1 351 -22 390 -30 56 -80 101 -132 120 -59
20 -675 22 -733 1z m592 -511 l0 -225 -225 0 -225 0 0 225 0 225 225 0 225 0
0 -225z"/>
<path d="M687 1728 c-22 -13 -45 -38 -57 -63 -19 -39 -20 -62 -20 -353 0 -192
4 -331 11 -364 34 -161 166 -293 327 -327 33 -7 172 -11 364 -11 291 0 314 1
353 20 110 53 111 212 1 264 -29 14 -79 16 -346 16 -344 0 -353 1 -390 63 -19
30 -20 52 -20 345 0 269 -2 319 -16 348 -36 75 -135 105 -207 62z"/>
<path d="M4292 1733 c-18 -9 -43 -30 -55 -47 -21 -30 -22 -40 -27 -361 -5
-358 -6 -361 -63 -395 -30 -19 -53 -20 -345 -20 -345 0 -361 -2 -402 -60 -54
-75 -28 -180 55 -220 39 -19 62 -20 353 -20 192 0 331 4 364 11 162 35 292
165 327 327 7 33 11 172 11 364 0 291 -1 314 -20 353 -36 74 -125 104 -198 68z"/>
</g>
</svg>
